<svg width="100" height="100" viewBox="0 0 100 100" fill="none" xmlns="http://www.w3.org/2000/svg">
<circle cx="50" cy="50" r="50" fill="#7B66FD"/>
<path d="M62.254 32.209C65.1413 34.9743 66.585 38.431 66.585 42.579C66.585 46.727 65.1413 50.204 62.254 53.01C59.3667 55.7753 55.7473 57.158 51.396 57.158H45.845V71.31H37V28H51.396C55.7473 28 59.3667 29.403 62.254 32.209ZM56.154 47.093C57.374 45.9137 57.984 44.409 57.984 42.579C57.984 40.749 57.374 39.2443 56.154 38.065C54.934 36.8857 53.3073 36.296 51.274 36.296H45.845V48.862H51.274C53.3073 48.862 54.934 48.2723 56.154 47.093Z" fill="white"/>
</svg>
